<svg width="24" height="19" viewBox="0 0 24 19" fill="none" xmlns="http://www.w3.org/2000/svg">
<path d="M0.193359 12.4547H23.9224V18.3869H0.193359V12.4547Z" fill="#1EB53A"/>
<path d="M0.193359 0.590332H23.9224V6.52259H0.193359V0.590332Z" fill="#0099B5"/>
<path d="M0.193359 6.28534H23.9224V12.6922H0.193359V6.28534Z" fill="#CE1126"/>
<path d="M0.193359 6.64099H23.9224V12.336H0.193359V6.64099Z" fill="white"/>
<path d="M5.17663 5.57344C6.3561 5.57344 7.31224 4.6173 7.31224 3.43783C7.31224 2.25836 6.3561 1.30222 5.17663 1.30222C3.99716 1.30222 3.04102 2.25836 3.04102 3.43783C3.04102 4.6173 3.99716 5.57344 5.17663 5.57344Z" fill="white"/>
<path d="M5.88757 5.57344C7.06703 5.57344 8.02318 4.6173 8.02318 3.43783C8.02318 2.25836 7.06703 1.30222 5.88757 1.30222C4.7081 1.30222 3.75195 2.25836 3.75195 3.43783C3.75195 4.6173 4.7081 5.57344 5.88757 5.57344Z" fill="#0099B5"/>
<path d="M9.87158 4.71979L9.73633 5.12555L9.94277 5.19674" fill="white"/>
<path d="M9.8706 4.71979L10.0059 5.12555L9.79942 5.19674" fill="white"/>
<path d="M10.2781 5.01499L9.85042 5.01174L9.84651 5.23008" fill="white"/>
<path d="M10.2766 5.01474L9.93245 5.26876L9.80096 5.09442" fill="white"/>
<path d="M9.46367 5.0148L9.80778 5.26882L9.93928 5.09448" fill="white"/>
<path d="M9.46406 5.01499L9.89177 5.01174L9.89567 5.23008" fill="white"/>
<path d="M10.121 5.49222L9.99197 5.08445L9.78311 5.1482" fill="white"/>
<path d="M10.1211 5.49228L9.77322 5.24351L9.89839 5.06457" fill="white"/>
<path d="M9.61909 5.4924L9.96702 5.24363L9.84185 5.06469" fill="white"/>
<path d="M9.61919 5.49247L9.74827 5.08469L9.95713 5.14844" fill="white"/>
<path d="M9.87354 3.01132L9.73828 3.41709L9.94472 3.48828" fill="white"/>
<path d="M9.87256 3.01135L10.0078 3.41712L9.80137 3.48831" fill="white"/>
<path d="M10.2801 3.30671L9.85237 3.30346L9.84847 3.5218" fill="white"/>
<path d="M10.2785 3.30658L9.93441 3.5606L9.80291 3.38626" fill="white"/>
<path d="M9.46367 3.30658L9.80778 3.5606L9.93928 3.38626" fill="white"/>
<path d="M9.46406 3.30655L9.89177 3.30331L9.89567 3.52164" fill="white"/>
<path d="M10.123 3.78391L9.99392 3.37613L9.78506 3.43989" fill="white"/>
<path d="M10.1231 3.78399L9.77517 3.53522L9.90034 3.35629" fill="white"/>
<path d="M9.62104 3.78402L9.96897 3.53525L9.8438 3.35632" fill="white"/>
<path d="M9.62114 3.78397L9.75022 3.3762L9.95908 3.43995" fill="white"/>
<path d="M9.87158 1.30276L9.73633 1.70853L9.94277 1.77972" fill="white"/>
<path d="M9.8706 1.30289L10.0059 1.70865L9.79942 1.77984" fill="white"/>
<path d="M10.2781 1.59781L9.85042 1.59457L9.84651 1.8129" fill="white"/>
<path d="M10.2766 1.59765L9.93245 1.85168L9.80096 1.67734" fill="white"/>
<path d="M9.46367 1.59802L9.80778 1.85204L9.93928 1.6777" fill="white"/>
<path d="M9.46406 1.59824L9.89177 1.59499L9.89567 1.81333" fill="white"/>
<path d="M10.121 2.07544L9.99197 1.66767L9.78311 1.73142" fill="white"/>
<path d="M10.1211 2.07538L9.77322 1.8266L9.89839 1.64767" fill="white"/>
<path d="M9.61909 2.07538L9.96702 1.8266L9.84185 1.64767" fill="white"/>
<path d="M9.61919 2.07544L9.74827 1.66767L9.95713 1.73142" fill="white"/>
<path d="M11.5825 4.71967L11.4473 5.12543L11.6537 5.19662" fill="white"/>
<path d="M11.5835 4.71954L11.7188 5.12531L11.5123 5.1965" fill="white"/>
<path d="M11.9891 5.01487L11.5614 5.01162L11.5575 5.22996" fill="white"/>
<path d="M11.9875 5.01461L11.6434 5.26864L11.5119 5.0943" fill="white"/>
<path d="M11.1746 5.01474L11.5187 5.26876L11.6502 5.09442" fill="white"/>
<path d="M11.175 5.01511L11.6027 5.01186L11.6066 5.2302" fill="white"/>
<path d="M11.832 5.49222L11.7029 5.08445L11.494 5.1482" fill="white"/>
<path d="M11.8321 5.49222L11.4842 5.24344L11.6093 5.06451" fill="white"/>
<path d="M11.33 5.49228L11.678 5.24351L11.5528 5.06457" fill="white"/>
<path d="M11.3301 5.49234L11.4592 5.08457L11.6681 5.14832" fill="white"/>
<path d="M11.5825 3.01138L11.4473 3.41715L11.6537 3.48834" fill="white"/>
<path d="M11.5815 3.01138L11.7168 3.41715L11.5104 3.48834" fill="white"/>
<path d="M11.9891 3.30668L11.5614 3.30343L11.5575 3.52176" fill="white"/>
<path d="M11.9875 3.30658L11.6434 3.5606L11.5119 3.38626" fill="white"/>
<path d="M11.1746 3.30658L11.5187 3.5606L11.6502 3.38626" fill="white"/>
<path d="M11.175 3.30689L11.6027 3.30364L11.6066 3.52198" fill="white"/>
<path d="M11.832 3.78409L11.7029 3.37632L11.494 3.44007" fill="white"/>
<path d="M11.8321 3.78415L11.4842 3.53538L11.6093 3.35644" fill="white"/>
<path d="M11.33 3.78402L11.678 3.53525L11.5528 3.35632" fill="white"/>
<path d="M11.3301 3.78397L11.4592 3.3762L11.6681 3.43995" fill="white"/>
<path d="M11.5806 1.30264L11.4453 1.70841L11.6518 1.7796" fill="white"/>
<path d="M11.5815 1.30264L11.7168 1.70841L11.5104 1.7796" fill="white"/>
<path d="M11.9871 1.59751L11.5594 1.59426L11.5555 1.8126" fill="white"/>
<path d="M11.9855 1.59765L11.6414 1.85168L11.5099 1.67734" fill="white"/>
<path d="M11.1746 1.59774L11.5187 1.85177L11.6502 1.67743" fill="white"/>
<path d="M11.175 1.598L11.6027 1.59475L11.6066 1.81309" fill="white"/>
<path d="M11.832 2.0752L11.7029 1.66742L11.494 1.73118" fill="white"/>
<path d="M11.8321 2.07522L11.4842 1.82645L11.6093 1.64752" fill="white"/>
<path d="M11.33 2.07525L11.678 1.82648L11.5528 1.64755" fill="white"/>
<path d="M11.3301 2.07532L11.4592 1.66755L11.6681 1.7313" fill="white"/>
<path d="M13.2896 4.71967L13.1543 5.12543L13.3607 5.19662" fill="white"/>
<path d="M13.2905 4.71954L13.4258 5.12531L13.2193 5.1965" fill="white"/>
<path d="M13.6961 5.01487L13.2684 5.01162L13.2645 5.22996" fill="white"/>
<path d="M13.6945 5.01467L13.3504 5.2687L13.2189 5.09436" fill="white"/>
<path d="M12.8816 5.01467L13.2258 5.2687L13.3572 5.09436" fill="white"/>
<path d="M12.882 5.01487L13.3097 5.01162L13.3136 5.22996" fill="white"/>
<path d="M13.541 5.49234L13.4119 5.08457L13.203 5.14832" fill="white"/>
<path d="M13.5411 5.49234L13.1931 5.24357L13.3183 5.06463" fill="white"/>
<path d="M13.039 5.4924L13.3869 5.24363L13.2618 5.06469" fill="white"/>
<path d="M13.0391 5.49247L13.1682 5.08469L13.377 5.14844" fill="white"/>
<path d="M13.2876 3.01126L13.1523 3.41703L13.3588 3.48821" fill="white"/>
<path d="M13.2886 3.01126L13.4238 3.41703L13.2174 3.48821" fill="white"/>
<path d="M13.6941 3.30655L13.2664 3.30331L13.2625 3.52164" fill="white"/>
<path d="M13.6926 3.30645L13.3485 3.56048L13.217 3.38614" fill="white"/>
<path d="M12.8816 3.30658L13.2258 3.5606L13.3572 3.38626" fill="white"/>
<path d="M12.882 3.30664L13.3097 3.3034L13.3136 3.52173" fill="white"/>
<path d="M13.539 3.78379L13.4099 3.37601L13.2011 3.43976" fill="white"/>
<path d="M13.5391 3.78393L13.1912 3.53516L13.3164 3.35623" fill="white"/>
<path d="M13.0371 3.78402L13.385 3.53525L13.2598 3.35632" fill="white"/>
<path d="M13.0372 3.78397L13.1662 3.3762L13.3751 3.43995" fill="white"/>
<path d="M13.2876 1.30264L13.1523 1.70841L13.3588 1.7796" fill="white"/>
<path d="M13.2886 1.30264L13.4238 1.70841L13.2174 1.7796" fill="white"/>
<path d="M13.6941 1.59757L13.2664 1.59432L13.2625 1.81266" fill="white"/>
<path d="M13.6926 1.59765L13.3485 1.85168L13.217 1.67734" fill="white"/>
<path d="M12.8816 1.59805L13.2258 1.85207L13.3572 1.67773" fill="white"/>
<path d="M12.882 1.59824L13.3097 1.59499L13.3136 1.81333" fill="white"/>
<path d="M13.539 2.07526L13.4099 1.66749L13.2011 1.73124" fill="white"/>
<path d="M13.5391 2.07534L13.1912 1.82657L13.3164 1.64764" fill="white"/>
<path d="M13.0371 2.07538L13.385 1.8266L13.2598 1.64767" fill="white"/>
<path d="M13.0372 2.07532L13.1662 1.66755L13.3751 1.7313" fill="white"/>
<path d="M6.45752 4.71979L6.32227 5.12555L6.52871 5.19674" fill="white"/>
<path d="M6.45654 4.71967L6.5918 5.12543L6.38535 5.19662" fill="white"/>
<path d="M6.86406 5.01499L6.43636 5.01174L6.43245 5.23008" fill="white"/>
<path d="M6.8625 5.01474L6.51839 5.26876L6.38689 5.09442" fill="white"/>
<path d="M6.04961 5.01492L6.39372 5.26894L6.52522 5.0946" fill="white"/>
<path d="M6.05 5.01511L6.4777 5.01186L6.48161 5.2302" fill="white"/>
<path d="M6.70698 5.49222L6.5779 5.08445L6.36904 5.1482" fill="white"/>
<path d="M6.70708 5.49215L6.35915 5.24338L6.48433 5.06445" fill="white"/>
<path d="M6.20503 5.49215L6.55296 5.24338L6.42778 5.06445" fill="white"/>
<path d="M6.20513 5.49222L6.33421 5.08445L6.54307 5.1482" fill="white"/>
<path d="M8.1626 4.71991L8.02734 5.12568L8.23379 5.19686" fill="white"/>
<path d="M8.16357 4.71979L8.29883 5.12555L8.09239 5.19674" fill="white"/>
<path d="M8.56914 5.01511L8.14144 5.01186L8.13753 5.2302" fill="white"/>
<path d="M8.56758 5.0148L8.22347 5.26882L8.09197 5.09448" fill="white"/>
<path d="M7.75664 5.01474L8.10075 5.26876L8.23225 5.09442" fill="white"/>
<path d="M7.75703 5.01505L8.18474 5.0118L8.18864 5.23014" fill="white"/>
<path d="M8.41401 5.49259L8.28493 5.08481L8.07608 5.14857" fill="white"/>
<path d="M8.41411 5.49252L8.06618 5.24375L8.19136 5.06481" fill="white"/>
<path d="M7.91206 5.49264L8.25999 5.24387L8.13482 5.06494" fill="white"/>
<path d="M7.91216 5.49271L8.04124 5.08494L8.2501 5.14869" fill="white"/>
<path d="M8.1626 3.01117L8.02734 3.41694L8.23379 3.48812" fill="white"/>
<path d="M8.16357 3.01117L8.29883 3.41694L8.09239 3.48812" fill="white"/>
<path d="M8.56914 3.30637L8.14144 3.30312L8.13753 3.52146" fill="white"/>
<path d="M8.56758 3.30624L8.22347 3.56026L8.09197 3.38592" fill="white"/>
<path d="M7.75664 3.30612L8.10075 3.56014L8.23225 3.3858" fill="white"/>
<path d="M7.75703 3.3061L8.18474 3.30285L8.18864 3.52119" fill="white"/>
<path d="M8.41401 3.78391L8.28493 3.37613L8.07608 3.43989" fill="white"/>
<path d="M8.41411 3.78381L8.06618 3.53504L8.19136 3.3561" fill="white"/>
<path d="M7.91206 3.78381L8.25999 3.53504L8.13482 3.3561" fill="white"/>
<path d="M7.91216 3.78366L8.04124 3.37589L8.2501 3.43964" fill="white"/>
</svg>
