<svg width="17" height="17" viewBox="0 0 17 17" fill="none" xmlns="http://www.w3.org/2000/svg">
<path fill-rule="evenodd" clip-rule="evenodd" d="M7.97731 4.91434C8.1197 4.77199 8.31281 4.69202 8.51415 4.69202C8.7155 4.69202 8.9086 4.77199 9.051 4.91434L10.5697 6.433C10.708 6.57621 10.7845 6.76802 10.7828 6.96711C10.7811 7.1662 10.7012 7.35665 10.5604 7.49744C10.4196 7.63822 10.2292 7.71808 10.0301 7.71981C9.83099 7.72154 9.63918 7.64501 9.49597 7.50669L8.51415 6.52488L7.53234 7.50669C7.38913 7.64501 7.19732 7.72154 6.99823 7.71981C6.79913 7.71808 6.60868 7.63822 6.4679 7.49744C6.32711 7.35665 6.24726 7.1662 6.24553 6.96711C6.2438 6.76802 6.32033 6.57621 6.45865 6.433L7.97731 4.91434ZM6.45865 9.47031C6.60104 9.32796 6.79415 9.24799 6.9955 9.24799C7.19684 9.24799 7.38995 9.32796 7.53234 9.47031L8.51415 10.4521L9.49597 9.47031C9.63918 9.332 9.83099 9.25546 10.0301 9.25719C10.2292 9.25892 10.4196 9.33878 10.5604 9.47956C10.7012 9.62035 10.7811 9.8108 10.7828 10.0099C10.7845 10.209 10.708 10.4008 10.5697 10.544L9.051 12.0627C8.9086 12.205 8.7155 12.285 8.51415 12.285C8.31281 12.285 8.1197 12.205 7.97731 12.0627L6.45865 10.544C6.3163 10.4016 6.23633 10.2085 6.23633 10.0072C6.23633 9.80581 6.3163 9.61271 6.45865 9.47031Z" fill="white"/>
</svg>
