<svg width="17" height="17" viewBox="0 0 17 17" fill="none" xmlns="http://www.w3.org/2000/svg">
<g clip-path="url(#clip0_6913_87)">
<path d="M8.86612 4.92908C4.69979 4.92908 1.49402 8.59951 1.49402 8.59951L1.19727 8.9275L1.49402 9.2555C1.49402 9.2555 4.4167 12.5882 8.30384 12.8947C8.48931 12.9181 8.67479 12.9259 8.86612 12.9259C9.05745 12.9259 9.24292 12.9181 9.4284 12.8947C13.3155 12.5882 16.2382 9.2555 16.2382 9.2555L16.535 8.9275L16.2382 8.59951C16.2382 8.59951 13.0324 4.92908 8.86612 4.92908ZM8.86612 5.92868C9.96725 5.92868 10.9825 6.22935 11.8649 6.63153C12.1832 7.15867 12.3647 7.76585 12.3647 8.4277C12.3647 10.2336 11.0098 11.7174 9.25659 11.9107C9.24683 11.9127 9.23511 11.9087 9.22535 11.9107C9.10626 11.9166 8.98716 11.9263 8.86612 11.9263C8.73336 11.9263 8.6045 11.9185 8.47565 11.9107C6.72243 11.7174 5.3675 10.2336 5.3675 8.4277C5.3675 7.77561 5.54321 7.16843 5.85168 6.64715H5.83606C6.72634 6.23716 7.75328 5.92868 8.86612 5.92868ZM8.86612 6.92829C8.03832 6.92829 7.36671 7.5999 7.36671 8.4277C7.36671 9.2555 8.03832 9.92711 8.86612 9.92711C9.69392 9.92711 10.3655 9.2555 10.3655 8.4277C10.3655 7.5999 9.69392 6.92829 8.86612 6.92829ZM4.49284 7.39685C4.41475 7.73266 4.36789 8.07042 4.36789 8.4277C4.36789 9.30431 4.61779 10.1243 5.05512 10.8174C3.79585 10.0892 2.9212 9.22035 2.6342 8.9275C2.87434 8.6815 3.544 8.02942 4.49284 7.39685ZM13.2394 7.39685C14.1882 8.02942 14.8579 8.6815 15.098 8.9275C14.811 9.22035 13.9364 10.0892 12.6771 10.8174C13.1144 10.1243 13.3643 9.30431 13.3643 8.4277C13.3643 8.07042 13.3175 7.72876 13.2394 7.39685Z" fill="white"/>
</g>
<defs>
<clipPath id="clip0_6913_87">
<rect width="15.9937" height="15.9937" fill="white" transform="translate(0.871094 0.930664)"/>
</clipPath>
</defs>
</svg>
